<svg version="1.1" id="Layer_1" xmlns:x="&amp;ns_extend;" xmlns:i="&amp;ns_ai;" xmlns:graph="&amp;ns_graphs;" xmlns="http://www.w3.org/2000/svg" xmlns:xlink="http://www.w3.org/1999/xlink" x="0px" y="0px" viewBox="0 0 176.1 64.8" enable-background="new 0 0 176.1 64.8" xml:space="preserve">
<metadata>
	<sfw xmlns="&amp;ns_sfw;">
		<slices></slices>
		<slicesourcebounds bottomleftorigin="true" height="62.39" width="174.11" x="0.89" y="1.09"></slicesourcebounds>
	</sfw>
</metadata>
<g id="Layer_2_1_">
	<g>
		<g id="Layer_1-2_8_">
			<path fill="#606364" d="M0.9,59c0-0.8,0.1-1.6,0.4-2.3c0.2-0.5,0.5-0.9,0.8-1.2c0.3-0.4,0.7-0.6,1.2-0.8c0.6-0.3,1.3-0.5,2-0.4
				c1.2-0.1,2.3,0.4,3.2,1.2c0.8,0.9,1.3,2.2,1.2,3.4c0.1,1.3-0.3,2.5-1.2,3.4c-0.8,0.8-2,1.3-3.2,1.2c-1.2,0.1-2.4-0.4-3.2-1.2
				C1.3,61.4,0.8,60.2,0.9,59z M2.8,58.9c-0.1,0.8,0.2,1.7,0.7,2.4c0.4,0.5,1.1,0.8,1.8,0.8s1.3-0.3,1.8-0.8c0.9-1.4,0.9-3.2,0-4.7
				c-0.5-0.5-1.1-0.8-1.8-0.8s-1.4,0.3-1.8,0.8C2.9,57.3,2.7,58.1,2.8,58.9L2.8,58.9z M19.5,63.4h-1.7v-3.3c0-0.5,0-0.9-0.1-1.4
				c-0.1-0.2-0.2-0.4-0.4-0.5c-0.2-0.1-0.4-0.2-0.6-0.2c-0.3,0-0.6,0.1-0.8,0.2c-0.2,0.2-0.4,0.4-0.5,0.7c-0.1,0.5-0.2,1-0.1,1.5v3
				h-1.7v-6.5h1.6v1c0.7-1,2-1.4,3.2-0.9c0.3,0.1,0.5,0.3,0.7,0.5s0.3,0.5,0.3,0.7c0.1,0.4,0.1,0.8,0.1,1.2V63.4L19.5,63.4z
				 M27.6,61.4l1.7,0.3c-0.2,0.6-0.5,1.1-1,1.4c-0.5,0.3-1.2,0.5-1.8,0.5c-1,0.1-1.9-0.4-2.5-1.1c-0.5-0.6-0.7-1.4-0.7-2.2
				c0-0.9,0.3-1.8,0.8-2.5c0.5-0.6,1.3-0.9,2.1-0.9c0.9,0,1.7,0.3,2.3,1c0.6,0.9,0.9,1.9,0.8,3H25c0,0.4,0.1,0.9,0.4,1.2
				s0.6,0.4,1,0.4c0.2,0,0.5-0.1,0.7-0.2c0.2-0.2,0.4-0.4,0.4-0.7L27.6,61.4z M27.7,59.6c0-0.4-0.1-0.8-0.4-1.1
				c-0.2-0.2-0.6-0.4-0.9-0.4c-0.4,0-0.7,0.1-0.9,0.4c-0.3,0.3-0.4,0.7-0.4,1.1H27.7z M91,59c0-0.8,0.1-1.6,0.4-2.3
				c0.2-0.5,0.5-0.9,0.8-1.2c0.3-0.4,0.7-0.6,1.2-0.8c0.6-0.2,1.3-0.4,1.9-0.4c1.2-0.1,2.3,0.4,3.2,1.2c0.8,0.9,1.3,2.2,1.2,3.4
				c0.2,2.4-1.5,4.5-4,4.8c-1.3,0.1-2.7-0.4-3.6-1.3C91.3,61.4,90.9,60.2,91,59z M92.8,58.9c-0.1,0.8,0.2,1.7,0.7,2.3
				c0.9,1,2.5,1.1,3.4,0.1l0,0l0.1-0.1c0.5-0.7,0.8-1.5,0.7-2.3c0.1-0.8-0.2-1.7-0.7-2.3c-1-1-2.6-1-3.6-0.1c0,0,0,0-0.1,0.1
				C93,57.2,92.8,58.1,92.8,58.9L92.8,58.9z M109.6,63.4h-1.7v-3.3c0-0.5,0-0.9-0.1-1.4c-0.2-0.4-0.6-0.7-1-0.7
				c-0.3,0-0.6,0.1-0.8,0.2c-0.2,0.2-0.4,0.4-0.5,0.7c-0.1,0.5-0.2,1-0.1,1.5v3h-1.7v-6.5h1.6v1c0.7-1,2-1.4,3.2-0.9
				c0.3,0.1,0.5,0.3,0.7,0.5s0.3,0.5,0.3,0.7c0.1,0.4,0.1,0.8,0.1,1.2V63.4z M117.6,61.4l1.7,0.3c-0.2,0.6-0.5,1.1-1,1.4
				c-0.5,0.3-1.2,0.5-1.8,0.5c-1,0.1-1.9-0.3-2.5-1.1c-0.5-0.7-0.7-1.4-0.7-2.3c-0.1-0.9,0.3-1.8,0.8-2.5c0.5-0.6,1.3-0.9,2.1-0.9
				c0.9,0,1.7,0.3,2.3,1c0.6,0.9,0.9,1.9,0.8,3H115c0,0.4,0.1,0.9,0.4,1.2s0.6,0.4,1,0.4c0.2,0,0.5-0.1,0.7-0.2
				C117.5,62,117.6,61.7,117.6,61.4L117.6,61.4z M117.7,59.6c0-0.4-0.1-0.8-0.4-1.1c-0.5-0.5-1.2-0.5-1.8-0.1c0,0,0,0-0.1,0.1
				c-0.3,0.3-0.4,0.7-0.4,1.1H117.7z M41.3,63.4l-2.4-9h1.2l1.3,5.9c0.1,0.6,0.3,1.2,0.4,1.8c0.2-1,0.4-1.5,0.4-1.7l1.7-6.1h1.4
				l1.3,4.6c0.3,1,0.5,2.1,0.7,3.2c0.1-0.6,0.3-1.2,0.5-2l1.4-5.8h1.2l-2.5,9h-1L45,56.4c-0.2-0.6-0.3-0.9-0.3-1
				c-0.1,0.4-0.2,0.7-0.3,1l-1.9,6.9L41.3,63.4L41.3,63.4z M53.4,60.2c-0.1-1,0.3-2,1-2.7c0.6-0.5,1.3-0.7,2-0.7
				c0.8,0,1.6,0.3,2.2,0.9c0.6,0.7,0.9,1.5,0.8,2.4c0,0.7-0.1,1.4-0.4,2c-0.3,0.5-0.7,0.9-1.1,1.1c-0.5,0.3-1,0.4-1.6,0.4
				c-0.8,0-1.6-0.3-2.2-0.9C53.5,62,53.2,61.1,53.4,60.2L53.4,60.2z M54.5,60.2c-0.1,0.7,0.1,1.3,0.5,1.9c0.3,0.4,0.8,0.6,1.4,0.6
				c0.5,0,1-0.2,1.4-0.6c0.4-0.6,0.6-1.2,0.5-1.9c0.1-0.7-0.1-1.3-0.5-1.9c-0.3-0.4-0.8-0.6-1.4-0.6c-0.5,0-1,0.2-1.4,0.6
				C54.6,58.8,54.4,59.5,54.5,60.2L54.5,60.2z M63.3,63.4v-6.5h1v1c0.2-0.4,0.4-0.7,0.7-0.9c0.2-0.1,0.5-0.2,0.7-0.2
				c0.4,0,0.8,0.1,1.1,0.3l-0.4,1c-0.2-0.1-0.5-0.2-0.8-0.2c-0.2,0-0.5,0.1-0.6,0.2c-0.2,0.1-0.3,0.4-0.4,0.6
				c-0.1,0.4-0.2,0.9-0.2,1.3v3.4L63.3,63.4z M70,63.4v-9h1.1v9H70z M79.6,63.4v-0.8c-0.4,0.7-1.1,1-1.8,1c-0.5,0-1-0.1-1.4-0.4
				c-0.4-0.3-0.8-0.7-1-1.2c-0.2-0.6-0.4-1.2-0.4-1.8s0.1-1.2,0.3-1.8c0.4-1,1.4-1.7,2.4-1.6c0.3,0,0.7,0.1,1,0.3s0.6,0.4,0.8,0.7
				v-3.3h1.1v9h-1V63.4z M76.1,60.2c0,0.7,0.1,1.3,0.5,1.9c0.5,0.7,1.5,0.8,2.2,0.3c0.1-0.1,0.2-0.2,0.3-0.3
				c0.4-0.5,0.6-1.2,0.5-1.8c0.1-0.7-0.1-1.4-0.5-2c-0.5-0.7-1.5-0.8-2.2-0.3c-0.1,0.1-0.2,0.2-0.3,0.3
				C76.3,58.8,76.1,59.5,76.1,60.2L76.1,60.2z M131.3,63.4l-2.4-9h1.2l1.4,5.9c0.1,0.6,0.3,1.2,0.4,1.8c0.2-1,0.4-1.5,0.4-1.7
				l1.7-6.1h1.4l1.3,4.6c0.3,1,0.5,2.1,0.7,3.2c0.1-0.6,0.3-1.2,0.5-2l1.4-5.8h1.2l-2.5,9h-1.1l-1.9-6.9c-0.2-0.6-0.3-0.9-0.3-1
				c-0.1,0.4-0.2,0.8-0.3,1l-1.9,6.9L131.3,63.4z M144.1,55.7v-1.3h1.1v1.3H144.1z M144.1,63.4v-6.5h1.1v6.5H144.1z M149.6,63.4v-9
				h6.1v1.1h-4.9v2.8h4.2v1h-4.2v4.1C150.8,63.4,149.6,63.4,149.6,63.4z M159.6,55.7v-1.3h1.1v1.3H159.6z M159.6,63.4v-6.5h1.1v6.5
				H159.6z"></path>
			<path fill="#008FD6" d="M30.9,18.4h18.3c1.7,0.1,2.9,1.5,2.8,3.1c0,0.7-0.3,1.3-0.8,1.9L37,40.7h12c3.9,0,3.9,5.9,0,5.9H30.8
				c-1.7-0.1-2.9-1.5-2.9-3.1l0,0c0-0.7,0.3-1.3,0.8-1.8L43,24.3H30.9C27,24.3,27,18.4,30.9,18.4z M76.2,29.6H50l-4.9,5.9h31.1
				C80.1,35.4,80.1,29.6,76.2,29.6z M76.2,40.7H54.1c1,1.8,1,4.1,0,5.9h22.1C80.1,46.6,80.1,40.7,76.2,40.7z M76.2,18.4h-22
				c1,1.8,1,4.1,0,5.9h22C80.1,24.3,80.1,18.4,76.2,18.4z M6.8,40.7v-5.2h23.3l4.9-5.9H6.8v-5.3h19.1c-1-1.8-1-4.1,0-5.9h-22
				c-1.6,0-2.9,1.4-2.9,3v22.2c0,1.6,1.3,2.9,2.9,2.9h22c-1-1.8-1-4.1,0-5.9L6.8,40.7L6.8,40.7z"></path>
			<path fill="#008FD6" d="M88.3,21.4v19.3h8.5c3.9,0,3.9,5.9,0,5.9H85.3c-1.6,0-2.9-1.3-2.9-2.9l0,0l0,0V21.4
				c0-1.6,1.3-2.9,2.9-2.9l0,0l0,0C86.9,18.4,88.3,19.7,88.3,21.4L88.3,21.4z M144,21.4v7.2l11.9-9.4c3-2.4,6.8,2.1,3.8,4.5
				l-8.2,6.5l8.7,11.6c2.3,3.1-2.3,6.8-4.6,3.7l-8.7-11.6l-2.8,2.2v7.6c0,3.9-5.9,3.9-5.9,0V21.4C138.1,17.5,144,17.5,144,21.4
				L144,21.4z M117.6,19.8l11.3,15.1V21.4c0-3.9,5.9-3.9,5.9,0v22.3c-0.1,1.7-1.5,2.9-3.1,2.9c-0.8,0-1.6-0.4-2.2-1.1L118,30.3v13.4
				c0,3.9-5.9,3.9-5.9,0V21.4C112.1,18.4,115.7,17.4,117.6,19.8z M108.8,22.4v21.2c0,3.9-5.9,3.9-5.9,0V22.4
				C104.7,23.7,107.1,23.7,108.8,22.4z"></path>
			<path fill="#008FD6" d="M102.7,14.6c-0.6,0.5-1.4,0.4-1.9-0.2c-0.5-0.6-0.4-1.4,0.2-1.9l0,0l0,0c2.8-2.4,6.9-2.4,9.8,0
				c0.6,0.5,0.7,1.3,0.2,1.9c-0.5,0.6-1.3,0.7-1.9,0.2l0,0l0,0C107.2,13.1,104.6,13.1,102.7,14.6z M105.9,15.5c-1.7,0-3,1.3-3,3
				s1.3,3,3,3s3-1.3,3-3l0,0l0,0C108.9,16.8,107.5,15.5,105.9,15.5z M99.7,11c3.6-3,8.8-3,12.4,0c0.6,0.5,1.4,0.4,1.9-0.2
				c0.5-0.6,0.4-1.4-0.2-1.9c-4.6-3.8-11.3-3.8-15.8,0c-0.6,0.5-0.7,1.3-0.2,1.9S99.1,11.4,99.7,11z M96.7,7.3
				c-0.6,0.4-1.4,0.3-1.9-0.3c-0.4-0.6-0.3-1.3,0.1-1.7c6.3-5.3,15.6-5.3,21.9,0c0.4,0.6,0.3,1.4-0.3,1.9c-0.4,0.3-1,0.3-1.4,0.1
				C109.8,2.8,102,2.8,96.7,7.3L96.7,7.3z"></path>
		</g>
	</g>
</g>
<g>
	<g>
		<g>
			<path fill="#008FD6" d="M168.3,15.2V16h-2v4.9H165V16h-2v-0.8C163.1,15.2,168.3,15.2,168.3,15.2z"></path>
			<path fill="#008FD6" d="M170.2,15.2l1.9,2.3l1.9-2.3h1v5.7h-1.2V17l0,0l-1.6,2h-0.1l-1.6-2l0,0v3.9h-1.2v-5.7H170.2z"></path>
		</g>
	</g>
</g>
</svg>